<svg viewBox="0 0 159 172" fill="none" xmlns="http://www.w3.org/2000/svg">
  <path d="M37.7709 110.034V149.647L80.1743 169.453L122.571 149.647V110.034L80.1743 90.2271L37.7709 110.034Z"
    fill="black" />
  <path d="M80.1743 168.626L38.5209 149.169V110.511L80.1743 91.0549L121.821 110.511V149.169L80.1743 168.626Z"
    stroke="white" stroke-width="1.5" stroke-miterlimit="10" />
  <path d="M37.7709 105.085V144.698L80.1743 164.498L122.571 144.698V105.085L80.1743 85.2786L37.7709 105.085Z"
    fill="black" />
  <path d="M80.1743 163.671L38.5209 144.221V105.563L80.1743 86.1064L121.821 105.563V144.221L80.1743 163.671Z"
    stroke="white" stroke-width="1.5" stroke-miterlimit="10" />
  <path d="M37.7709 100.13V139.743L80.1743 159.55L122.571 139.743V100.13L80.1743 80.3238L37.7709 100.13Z"
    fill="black" />
  <path d="M80.1743 158.722L38.5209 139.266V100.608L80.1743 81.1516L121.821 100.608V139.266L80.1743 158.722Z"
    stroke="white" stroke-width="1.5" stroke-miterlimit="10" />
  <path d="M37.7709 95.1819V134.795L80.1743 154.595L122.571 134.795V95.1819L80.1743 75.3754L37.7709 95.1819Z"
    fill="black" />
  <path d="M80.1743 153.767L38.5209 134.318V95.6594L80.1743 76.2032L121.821 95.6593V134.318L80.1743 153.767Z"
    stroke="white" stroke-width="1.5" stroke-miterlimit="10" />
  <path
    d="M80.1742 127.866C91.8836 127.866 101.376 118.998 101.376 108.059C101.376 97.1205 91.8836 88.2528 80.1742 88.2528C68.4649 88.2528 58.9725 97.1205 58.9725 108.059C58.9725 118.998 68.4649 127.866 80.1742 127.866Z"
    fill="black" />
  <path
    d="M100.626 108.059C100.626 118.537 91.5183 127.116 80.1742 127.116C68.8302 127.116 59.7225 118.537 59.7225 108.059C59.7225 97.582 68.8302 89.0028 80.1742 89.0028C91.5183 89.0028 100.626 97.582 100.626 108.059Z"
    stroke="white" stroke-width="1.5" stroke-miterlimit="10" />
  <path
    d="M80.1742 122.911C91.8836 122.911 101.376 114.043 101.376 103.104C101.376 92.1656 91.8836 83.2979 80.1742 83.2979C68.4649 83.2979 58.9725 92.1656 58.9725 103.104C58.9725 114.043 68.4649 122.911 80.1742 122.911Z"
    fill="black" />
  <path
    d="M100.626 103.104C100.626 113.582 91.5183 122.161 80.1742 122.161C68.8302 122.161 59.7225 113.582 59.7225 103.104C59.7225 92.6271 68.8302 84.0479 80.1742 84.0479C91.5183 84.0479 100.626 92.6271 100.626 103.104Z"
    stroke="white" stroke-width="1.5" stroke-miterlimit="10" />
  <path
    d="M80.1742 117.963C91.8836 117.963 101.376 109.095 101.376 98.156C101.376 87.2172 91.8836 78.3495 80.1742 78.3495C68.4649 78.3495 58.9725 87.2172 58.9725 98.156C58.9725 109.095 68.4649 117.963 80.1742 117.963Z"
    fill="black" />
  <path
    d="M100.626 98.156C100.626 108.633 91.5183 117.213 80.1742 117.213C68.8302 117.213 59.7225 108.633 59.7225 98.156C59.7225 87.6787 68.8302 79.0995 80.1742 79.0995C91.5183 79.0995 100.626 87.6787 100.626 98.156Z"
    stroke="white" stroke-width="1.5" stroke-miterlimit="10" />
  <path
    d="M80.1742 113.014C91.8836 113.014 101.376 104.146 101.376 93.2076C101.376 82.2688 91.8836 73.4011 80.1742 73.4011C68.4649 73.4011 58.9725 82.2688 58.9725 93.2076C58.9725 104.146 68.4649 113.014 80.1742 113.014Z"
    fill="black" />
  <path
    d="M100.626 93.2076C100.626 103.685 91.5183 112.264 80.1742 112.264C68.8302 112.264 59.7225 103.685 59.7225 93.2076C59.7225 82.7302 68.8302 74.1511 80.1742 74.1511C91.5183 74.1511 100.626 82.7302 100.626 93.2076Z"
    stroke="white" stroke-width="1.5" stroke-miterlimit="10" />
  <path
    d="M80.1742 108.059C91.8836 108.059 101.376 99.1916 101.376 88.2528C101.376 77.3139 91.8836 68.4462 80.1742 68.4462C68.4649 68.4462 58.9725 77.3139 58.9725 88.2528C58.9725 99.1916 68.4649 108.059 80.1742 108.059Z"
    fill="black" />
  <path
    d="M100.626 88.2528C100.626 98.7302 91.5183 107.309 80.1742 107.309C68.8302 107.309 59.7225 98.7302 59.7225 88.2528C59.7225 77.7754 68.8302 69.1962 80.1742 69.1962C91.5183 69.1962 100.626 77.7754 100.626 88.2528Z"
    stroke="white" stroke-width="1.5" stroke-miterlimit="10" />
  <path
    d="M80.1742 103.111C91.8836 103.111 101.376 94.2432 101.376 83.3043C101.376 72.3655 91.8836 63.4978 80.1742 63.4978C68.4649 63.4978 58.9725 72.3655 58.9725 83.3043C58.9725 94.2432 68.4649 103.111 80.1742 103.111Z"
    fill="black" />
  <path
    d="M100.626 83.3043C100.626 93.7817 91.5183 102.361 80.1742 102.361C68.8302 102.361 59.7225 93.7817 59.7225 83.3043C59.7225 72.8269 68.8302 64.2478 80.1742 64.2478C91.5183 64.2478 100.626 72.8269 100.626 83.3043Z"
    stroke="white" stroke-width="1.5" stroke-miterlimit="10" />
  <path
    d="M80.1742 98.1561C91.8836 98.1561 101.376 89.2884 101.376 78.3495C101.376 67.4107 91.8836 58.543 80.1742 58.543C68.4649 58.543 58.9725 67.4107 58.9725 78.3495C58.9725 89.2884 68.4649 98.1561 80.1742 98.1561Z"
    fill="black" />
  <path
    d="M100.626 78.3495C100.626 88.8269 91.5183 97.4061 80.1742 97.4061C68.8302 97.4061 59.7225 88.8269 59.7225 78.3495C59.7225 67.8721 68.8302 59.293 80.1742 59.293C91.5183 59.293 100.626 67.8721 100.626 78.3495Z"
    stroke="white" stroke-width="1.5" stroke-miterlimit="10" />
  <path
    d="M80.1742 93.2076C91.8836 93.2076 101.376 84.3399 101.376 73.4011C101.376 62.4622 91.8836 53.5945 80.1742 53.5945C68.4649 53.5945 58.9725 62.4622 58.9725 73.4011C58.9725 84.3399 68.4649 93.2076 80.1742 93.2076Z"
    fill="black" />
  <path
    d="M100.626 73.4011C100.626 83.8785 91.5183 92.4576 80.1742 92.4576C68.8302 92.4576 59.7225 83.8785 59.7225 73.4011C59.7225 62.9237 68.8302 54.3445 80.1742 54.3445C91.5183 54.3445 100.626 62.9237 100.626 73.4011Z"
    stroke="white" stroke-width="1.5" stroke-miterlimit="10" />
  <path d="M37.7709 37.8893V77.5025L80.1743 97.309L122.571 77.5025V37.8893L80.1743 18.0828L37.7709 37.8893Z"
    fill="black" />
  <path d="M80.1743 96.4812L38.5209 77.025V38.3668L80.1743 18.9106L121.821 38.3668V77.025L80.1743 96.4812Z"
    stroke="white" stroke-width="1.5" stroke-miterlimit="10" />
  <path d="M37.7709 32.9409V72.5476L80.1743 92.3542L122.571 72.5476V32.9409L80.1743 13.1343L37.7709 32.9409Z"
    fill="black" />
  <path d="M80.1743 91.5264L38.5209 72.0702V33.4184L80.1743 13.9621L121.821 33.4183V72.0702L80.1743 91.5264Z"
    stroke="white" stroke-width="1.5" stroke-miterlimit="10" />
  <path d="M37.7709 27.9861V67.5992L80.1743 87.4057L122.571 67.5992V27.9861L80.1743 8.1795L37.7709 27.9861Z"
    fill="black" />
  <path d="M80.1743 86.5779L38.5209 67.1217V28.4635L80.1743 9.0073L121.821 28.4635V67.1217L80.1743 86.5779Z"
    stroke="white" stroke-width="1.5" stroke-miterlimit="10" />
  <path d="M37.7709 23.0376V62.6444L80.1743 82.4509L122.571 62.6444V23.0376L80.1743 3.23108L37.7709 23.0376Z"
    fill="black" />
  <path d="M80.1743 81.6231L38.5209 62.1669V23.5151L80.1743 4.05888L121.821 23.5151V62.1669L80.1743 81.6231Z"
    stroke="white" stroke-width="1.5" stroke-miterlimit="10" />
</svg>