<svg width="74" height="79" viewBox="0 0 74 79" fill="none" xmlns="http://www.w3.org/2000/svg">
<path d="M55.4976 2.47317H17.9171C8.90246 2.47317 1.58539 9.79025 1.58539 18.8049V20.7951C1.58539 27.8195 6.03417 33.7903 12.239 36.0732C9.25368 40.639 7.49758 46.0829 7.49758 51.9366C7.49758 61.6537 12.239 70.6098 20.4342 76.6976H52.922C61.1171 70.6683 65.8586 61.6537 65.8586 51.9366C65.8586 46.0829 64.1025 40.639 61.1171 36.0732C67.322 33.7903 71.7707 27.8195 71.7707 20.7951V18.8049C71.8293 9.79025 64.5122 2.47317 55.4976 2.47317ZM55.0293 27.2342H52.2195C47.7122 24.4244 42.4439 22.7854 36.7659 22.7854C31.0878 22.7854 25.761 24.4244 21.3122 27.2342H18.5025C14.4049 27.2342 11.0683 23.8976 11.0683 19.8C11.0683 15.7024 14.2878 12.3659 18.3854 12.3659H54.9708C59.0683 12.3659 62.4049 15.7024 62.4049 19.8C62.4049 23.8976 59.1269 27.2342 55.0293 27.2342Z" fill="black" stroke="white" stroke-width="3"/>
</svg>
