<svg width="512" height="512" viewBox="0 0 512 512" fill="none" xmlns="http://www.w3.org/2000/svg">
  <rect width="512" height="512" fill="#6200EE" />
  <path d="M180.415 301.061V372.364L257.221 408.016L334.015 372.364V301.061L257.221 265.409L180.415 301.061Z"
    fill="white" />
  <path d="M257.221 406.362L181.915 371.407V302.018L257.221 267.063L332.515 302.018V371.407L257.221 406.362Z"
    stroke="#6200EE" stroke-width="3" stroke-miterlimit="10" />
  <path d="M180.415 292.153V363.457L257.221 399.097L334.015 363.457V292.153L257.221 256.502L180.415 292.153Z"
    fill="white" />
  <path d="M257.221 397.444L181.915 362.499V293.111L257.221 258.155L332.515 293.111V362.5L257.221 397.444Z"
    stroke="#6200EE" stroke-width="3" stroke-miterlimit="10" />
  <path d="M180.415 283.235V354.538L257.221 390.19L334.015 354.538V283.235L257.221 247.583L180.415 283.235Z"
    fill="white" />
  <path d="M257.221 388.536L181.915 353.581V284.192L257.221 249.237L332.515 284.192V353.581L257.221 388.536Z"
    stroke="#6200EE" stroke-width="3" stroke-miterlimit="10" />
  <path d="M180.415 274.328V345.631L257.221 381.272L334.015 345.631V274.328L257.221 238.676L180.415 274.328Z"
    fill="white" />
  <path d="M257.221 379.618L181.915 344.674V275.285L257.221 240.33L332.515 275.285V344.674L257.221 379.618Z"
    stroke="#6200EE" stroke-width="3" stroke-miterlimit="10" />
  <path
    d="M257.221 333.159C278.431 333.159 295.624 317.197 295.624 297.507C295.624 277.817 278.431 261.855 257.221 261.855C236.012 261.855 218.818 277.817 218.818 297.507C218.818 317.197 236.012 333.159 257.221 333.159Z"
    fill="white" />
  <path
    d="M294.124 297.507C294.124 316.265 277.709 331.659 257.221 331.659C236.733 331.659 220.318 316.265 220.318 297.507C220.318 278.749 236.733 263.355 257.221 263.355C277.709 263.355 294.124 278.749 294.124 297.507Z"
    stroke="#6200EE" stroke-width="3" stroke-miterlimit="10" />
  <path
    d="M257.221 324.24C278.431 324.24 295.624 308.278 295.624 288.588C295.624 268.898 278.431 252.936 257.221 252.936C236.012 252.936 218.818 268.898 218.818 288.588C218.818 308.278 236.012 324.24 257.221 324.24Z"
    fill="white" />
  <path
    d="M294.124 288.588C294.124 307.347 277.709 322.74 257.221 322.74C236.733 322.74 220.318 307.347 220.318 288.588C220.318 269.83 236.733 254.436 257.221 254.436C277.709 254.436 294.124 269.83 294.124 288.588Z"
    stroke="#6200EE" stroke-width="3" stroke-miterlimit="10" />
  <path
    d="M257.221 315.333C278.431 315.333 295.624 299.371 295.624 279.681C295.624 259.991 278.431 244.029 257.221 244.029C236.012 244.029 218.818 259.991 218.818 279.681C218.818 299.371 236.012 315.333 257.221 315.333Z"
    fill="white" />
  <path
    d="M294.124 279.681C294.124 298.439 277.709 313.833 257.221 313.833C236.733 313.833 220.318 298.439 220.318 279.681C220.318 260.923 236.733 245.529 257.221 245.529C277.709 245.529 294.124 260.923 294.124 279.681Z"
    stroke="#6200EE" stroke-width="3" stroke-miterlimit="10" />
  <path
    d="M257.221 306.426C278.431 306.426 295.624 290.464 295.624 270.774C295.624 251.084 278.431 235.122 257.221 235.122C236.012 235.122 218.818 251.084 218.818 270.774C218.818 290.464 236.012 306.426 257.221 306.426Z"
    fill="white" />
  <path
    d="M294.124 270.774C294.124 289.532 277.709 304.926 257.221 304.926C236.733 304.926 220.318 289.532 220.318 270.774C220.318 252.015 236.733 236.622 257.221 236.622C277.709 236.622 294.124 252.015 294.124 270.774Z"
    stroke="#6200EE" stroke-width="3" stroke-miterlimit="10" />
  <path
    d="M257.221 297.507C278.431 297.507 295.624 281.545 295.624 261.855C295.624 242.165 278.431 226.203 257.221 226.203C236.012 226.203 218.818 242.165 218.818 261.855C218.818 281.545 236.012 297.507 257.221 297.507Z"
    fill="white" />
  <path
    d="M294.124 261.855C294.124 280.614 277.709 296.007 257.221 296.007C236.733 296.007 220.318 280.614 220.318 261.855C220.318 243.097 236.733 227.703 257.221 227.703C277.709 227.703 294.124 243.097 294.124 261.855Z"
    stroke="#6200EE" stroke-width="3" stroke-miterlimit="10" />
  <path
    d="M257.221 288.6C278.431 288.6 295.624 272.638 295.624 252.948C295.624 233.258 278.431 217.296 257.221 217.296C236.012 217.296 218.818 233.258 218.818 252.948C218.818 272.638 236.012 288.6 257.221 288.6Z"
    fill="white" />
  <path
    d="M294.124 252.948C294.124 271.706 277.709 287.1 257.221 287.1C236.733 287.1 220.318 271.706 220.318 252.948C220.318 234.189 236.733 218.796 257.221 218.796C277.709 218.796 294.124 234.189 294.124 252.948Z"
    stroke="#6200EE" stroke-width="3" stroke-miterlimit="10" />
  <path
    d="M257.221 279.681C278.431 279.681 295.624 263.719 295.624 244.029C295.624 224.339 278.431 208.377 257.221 208.377C236.012 208.377 218.818 224.339 218.818 244.029C218.818 263.719 236.012 279.681 257.221 279.681Z"
    fill="white" />
  <path
    d="M294.124 244.029C294.124 262.788 277.709 278.181 257.221 278.181C236.733 278.181 220.318 262.788 220.318 244.029C220.318 225.271 236.733 209.877 257.221 209.877C277.709 209.877 294.124 225.271 294.124 244.029Z"
    stroke="#6200EE" stroke-width="3" stroke-miterlimit="10" />
  <path
    d="M257.221 270.774C278.431 270.774 295.624 254.812 295.624 235.122C295.624 215.432 278.431 199.47 257.221 199.47C236.012 199.47 218.818 215.432 218.818 235.122C218.818 254.812 236.012 270.774 257.221 270.774Z"
    fill="white" />
  <path
    d="M294.124 235.122C294.124 253.881 277.709 269.274 257.221 269.274C236.733 269.274 220.318 253.881 220.318 235.122C220.318 216.364 236.733 200.97 257.221 200.97C277.709 200.97 294.124 216.364 294.124 235.122Z"
    stroke="#6200EE" stroke-width="3" stroke-miterlimit="10" />
  <path d="M180.415 171.201V242.504L257.221 278.156L334.015 242.504V171.201L257.221 135.549L180.415 171.201Z"
    fill="white" />
  <path d="M257.221 276.503L181.915 241.547V172.158L257.221 137.203L332.515 172.158V241.547L257.221 276.503Z"
    stroke="#6200EE" stroke-width="3" stroke-miterlimit="10" />
  <path d="M180.415 162.294V233.586L257.221 269.238L334.015 233.586V162.294L257.221 126.642L180.415 162.294Z"
    fill="white" />
  <path d="M257.221 267.584L181.915 232.628V163.251L257.221 128.296L332.515 163.251V232.628L257.221 267.584Z"
    stroke="#6200EE" stroke-width="3" stroke-miterlimit="10" />
  <path d="M180.415 153.375V224.679L257.221 260.33L334.015 224.679V153.375L257.221 117.723L180.415 153.375Z"
    fill="white" />
  <path d="M257.221 258.677L181.915 223.721V154.333L257.221 119.377L332.515 154.332V223.721L257.221 258.677Z"
    stroke="#6200EE" stroke-width="3" stroke-miterlimit="10" />
  <path d="M180.415 144.468V215.76L257.221 251.412L334.015 215.76V144.468L257.221 108.816L180.415 144.468Z"
    fill="white" />
  <path d="M257.221 249.758L181.915 214.803V145.425L257.221 110.47L332.515 145.425V214.803L257.221 249.758Z"
    stroke="#6200EE" stroke-width="3" stroke-miterlimit="10" />
</svg>